<?xml version="1.0" standalone="no"?>
<!DOCTYPE svg PUBLIC "-//W3C//DTD SVG 20010904//EN"
 "http://www.w3.org/TR/2001/REC-SVG-20010904/DTD/svg10.dtd">
<svg version="1.0" xmlns="http://www.w3.org/2000/svg"
 width="426.000000pt" height="459.000000pt" viewBox="0 0 426.000000 459.000000"
 preserveAspectRatio="xMidYMid meet">
<metadata>
Created by potrace 1.16, written by Peter Selinger 2001-2019
</metadata>
<g transform="translate(0.000000,459.000000) scale(0.100000,-0.100000)"
fill="#000000" stroke="none">
<path d="M1950 4543 c-554 -85 -966 -475 -1086 -1028 -24 -111 -24 -379 0
-490 66 -306 224 -570 449 -750 45 -37 107 -80 137 -98 l55 -32 -130 -12
c-222 -21 -377 -64 -559 -155 -412 -206 -694 -572 -796 -1033 -17 -80 -20
-128 -20 -449 0 -350 1 -359 22 -397 12 -21 39 -51 61 -66 l40 -28 1992 -3
1992 -2 44 23 c27 14 57 42 77 72 l34 50 -5 365 c-4 330 -6 373 -26 453 -75
308 -218 559 -433 762 -263 248 -576 383 -949 411 l-96 7 91 60 c167 111 343
311 434 492 41 83 86 214 108 315 14 65 19 127 19 260 0 193 -13 277 -67 430
-153 432 -535 757 -983 834 -82 15 -334 20 -405 9z"/>
</g>
</svg>
