<?xml version="1.0" standalone="no"?>
<!DOCTYPE svg PUBLIC "-//W3C//DTD SVG 20010904//EN"
 "http://www.w3.org/TR/2001/REC-SVG-20010904/DTD/svg10.dtd">
<svg version="1.0" xmlns="http://www.w3.org/2000/svg"
 width="590.000000pt" height="608.000000pt" viewBox="0 0 590.000000 608.000000"
 preserveAspectRatio="xMidYMid meet">
<metadata>
Created by potrace 1.16, written by Peter Selinger 2001-2019
</metadata>
<g transform="translate(0.000000,608.000000) scale(0.100000,-0.100000)"
fill="#000000" stroke="none">
<path d="M2775 5954 c-16 -2 -77 -9 -135 -15 -360 -38 -769 -176 -1102 -372
-603 -355 -1082 -969 -1293 -1656 -163 -530 -177 -1075 -44 -1621 195 -795
723 -1487 1428 -1869 686 -372 1495 -442 2221 -193 161 55 208 75 350 146 554
277 999 722 1284 1286 156 308 242 579 297 940 30 193 33 607 6 800 -53 373
-143 666 -305 983 -283 558 -730 1006 -1268 1275 -298 149 -558 230 -894 278
-100 14 -482 27 -545 18z m420 -310 c598 -99 1055 -641 1055 -1254 0 -456
-258 -894 -653 -1111 l-48 -26 118 -6 c159 -9 275 -31 414 -77 234 -78 405
-184 584 -364 214 -215 341 -445 406 -735 26 -117 42 -378 37 -601 -4 -163 -7
-190 -25 -225 -24 -46 -53 -75 -103 -101 -34 -18 -101 -19 -2000 -19 l-1966 0
-49 26 c-30 15 -62 42 -80 68 l-30 43 0 346 c1 378 6 426 70 619 149 450 529
819 985 956 121 37 237 56 372 64 l117 6 -65 38 c-93 55 -222 158 -289 231
-165 182 -285 423 -326 658 -17 98 -17 325 0 420 57 319 235 612 489 803 291
218 626 300 987 241z"/>
</g>
</svg>
